<svg width="24" height="24" viewBox="0 0 24 24" fill="none" xmlns="http://www.w3.org/2000/svg">
<path d="M12 22C17.5 22 22 17.5 22 12C22 6.5 17.5 2 12 2C6.5 2 2 6.5 2 12C2 17.5 6.5 22 12 22Z" stroke="#323232" stroke-width="2" stroke-miterlimit="10"/>
<path d="M14.3048 8.06631L10.5 9.5C9.92385 9.64304 9.33976 10.2271 9.19672 10.8033L8.06654 14.3046C7.76854 15.4966 8.49965 16.2317 9.69565 15.9337L13.1967 14.8033C13.7689 14.6602 14.357 14.0722 14.5 13.5L15.9339 9.69542C16.2319 8.50339 15.4968 7.76831 14.3048 8.06631Z" stroke="#323232" stroke-width="2" stroke-linecap="round" stroke-linejoin="round"/>
</svg>
