<svg width="44" height="44" viewBox="0 0 44 44" fill="none" xmlns="http://www.w3.org/2000/svg">
<rect width="44" height="44" rx="16" fill="#8BC750"/>
<path d="M22.0233 11.3945C18.1616 11.3945 15.0233 14.5329 15.0233 18.3945V21.7662C15.0233 22.4779 14.72 23.5629 14.3583 24.1695L13.0166 26.3979C12.1883 27.7745 12.76 29.3029 14.2766 29.8162C19.305 31.4962 24.73 31.4962 29.7583 29.8162C31.17 29.3495 31.7883 27.6812 31.0183 26.3979L29.6766 24.1695C29.3266 23.5629 29.0233 22.4779 29.0233 21.7662V18.3945C29.0233 14.5445 25.8733 11.3945 22.0233 11.3945Z" stroke="#FFF6F4" stroke-width="1.5" stroke-miterlimit="10" stroke-linecap="round"/>
<path d="M24.1817 11.7337C23.82 11.6287 23.4467 11.547 23.0617 11.5003C21.9417 11.3603 20.8683 11.442 19.865 11.7337C20.2033 10.8703 21.0433 10.2637 22.0233 10.2637C23.0033 10.2637 23.8433 10.8703 24.1817 11.7337Z" stroke="#FFF6F4" stroke-width="1.5" stroke-miterlimit="10" stroke-linecap="round" stroke-linejoin="round"/>
<path d="M25.5233 30.2363C25.5233 32.1613 23.9483 33.7363 22.0233 33.7363C21.0666 33.7363 20.18 33.3397 19.55 32.7097C18.92 32.0797 18.5233 31.193 18.5233 30.2363" stroke="#FFF6F4" stroke-width="1.5" stroke-miterlimit="10"/>
<circle cx="27" cy="15" r="3" fill="#F86F03"/>
</svg>
